<svg xmlns="http://www.w3.org/2000/svg" width="96.39" height="109.975" viewBox="0 0 96.39 109.975">
  <g id="logo" transform="translate(-833.547 -63.24)">
    <path id="Trazado_1" data-name="Trazado 1" d="M907.748,94.024a19.254,19.254,0,0,0-3.207-5.248.477.477,0,0,1,.5-.762c7.754,2.18,14.9,6.237,18.69,10.256a38.216,38.216,0,0,1,.174,3.875l0,.194a36.192,36.192,0,0,1-10.009,24.643,35.305,35.305,0,0,1-11.239,7.961,39.767,39.767,0,0,1-14.914,3.146q-1.786-.011-3.507-.165a.146.146,0,0,1-.034-.284c15.1-5.124,29.658-27.558,23.552-43.615" transform="translate(-6.303 -3.087)" fill="#003f8f" fill-rule="evenodd"/>
    <path id="Trazado_2" data-name="Trazado 2" d="M883.473,122.238a20.3,20.3,0,0,0,6.841-1.089.476.476,0,0,1,.558.706c-4.007,6.3-9.178,12.447-13.516,14.8a34.4,34.4,0,0,1-8.508-2.433,35.677,35.677,0,0,1-11.279-7.635,33.9,33.9,0,0,1-7.358-11.245,35.97,35.97,0,0,1-2.567-13.825v-.2a35.366,35.366,0,0,1,2.781-13.794,36.253,36.253,0,0,1,3.943-7.019.17.17,0,0,1,.3.134c-3.9,18.625,10.746,41.488,28.8,41.595" transform="translate(-1.758 -2.145)" fill="#d9000d" fill-rule="evenodd"/>
    <path id="Trazado_3" data-name="Trazado 3" d="M865.368,90.036a33.717,33.717,0,0,0-1.691,6.835.477.477,0,0,1-.887.154c-4.043-7.255-5.865-15.27-5.739-21.073q.991-1.2,2.087-2.312a34.738,34.738,0,0,1,11.417-7.661,38.059,38.059,0,0,1,28.773.17,35.633,35.633,0,0,1,11.278,7.7,34.184,34.184,0,0,1,7.354,11.339,35.011,35.011,0,0,1,2.067,7.423.155.155,0,0,1-.287.1c-9.076-15.66-45.191-23.195-54.372-2.678" transform="translate(-2.93)" fill="#0090df" fill-rule="evenodd"/>
    <path id="Trazado_4" data-name="Trazado 4" d="M887.65,89.155l.79,4.536a.125.125,0,0,0,.238.031l1.9-4.194a.127.127,0,0,1,.242.061l-.319,4.594a.127.127,0,0,0,.226.087l2.85-3.616a.126.126,0,0,1,.22.116l-1.409,4.385.2.137,3.633-2.828.186.165-2.417,3.92.158.182,4.206-1.878a.127.127,0,0,1,.139.207l-3.285,3.226a.126.126,0,0,0,.111.214l4.531-.816a.124.124,0,0,1,.086.23l-3.961,2.348a.127.127,0,0,0,.057.235l4.594.293a.125.125,0,0,1,.029.245l-4.408,1.331v.24l4.391,1.385a.127.127,0,0,1-.031.247l-4.6.237a.126.126,0,0,0-.059.233l3.933,2.395a.125.125,0,0,1-.088.23l-4.522-.869-.114.214,3.247,3.266a.126.126,0,0,1-.143.2l-4.183-1.927-.161.18,2.371,3.948-.187.163-3.6-2.871-.2.137,1.356,4.4a.126.126,0,0,1-.22.114l-2.81-3.65a.126.126,0,0,0-.225.084l.264,4.6a.126.126,0,0,1-.242.057l-1.852-4.215-.24.028-.845,4.526a.126.126,0,0,1-.248,0l-.79-4.535-.239-.032-1.9,4.194a.127.127,0,0,1-.242-.06l.319-4.594a.127.127,0,0,0-.225-.088l-2.851,3.617a.126.126,0,0,1-.219-.117l1.407-4.384-.2-.138-3.634,2.829-.184-.165,2.416-3.921-.158-.181-4.2,1.878a.126.126,0,0,1-.139-.2l3.283-3.226-.109-.214-4.533.816a.126.126,0,0,1-.085-.233l3.962-2.347a.126.126,0,0,0-.057-.235l-4.6-.291a.126.126,0,0,1-.029-.247l4.408-1.331,0-.241-4.392-1.384a.126.126,0,0,1,.033-.246l4.6-.237a.127.127,0,0,0,.059-.235l-3.932-2.394a.126.126,0,0,1,.088-.231l4.523.869.114-.213-3.247-3.266a.126.126,0,0,1,.143-.2l4.181,1.928.161-.18-2.369-3.949.186-.163,3.6,2.872.2-.136-1.356-4.4a.126.126,0,0,1,.22-.114l2.808,3.65a.127.127,0,0,0,.227-.084l-.264-4.6a.125.125,0,0,1,.24-.059l1.854,4.214a.126.126,0,0,0,.24-.026l.843-4.526a.126.126,0,0,1,.249,0" transform="translate(-5.063 -3.218)" fill="#ffa900"/>
    <path id="Trazado_5" data-name="Trazado 5" d="M843.711,178.818l-.168.975a5.091,5.091,0,0,1-4.94,4.033h-.1a3.894,3.894,0,0,1-1.412-.236l-.336,2.018a1.77,1.77,0,0,1-1.748,1.512H833.66l1.38-8.3a5.113,5.113,0,0,1,4.94-4.068h.1a3.483,3.483,0,0,1,3.631,4.068m-4.167-1.311h-.034a1.853,1.853,0,0,0-1.714,1.579l-.034.4a1.32,1.32,0,0,0,1.245,1.613h.033a1.831,1.831,0,0,0,1.715-1.613l.065-.4A1.3,1.3,0,0,0,839.544,177.506Z" transform="translate(-0.014 -13.904)" fill="#161615"/>
    <path id="Trazado_6" data-name="Trazado 6" d="M854.048,178.918l-.168,1.009a5.145,5.145,0,0,1-4.975,4.168h-.1a3.525,3.525,0,0,1-3.664-4.168l.168-1.009a5.116,5.116,0,0,1,4.974-4.166h.1a3.525,3.525,0,0,1,3.664,4.166m-4.168-1.344h-.032a1.889,1.889,0,0,0-1.748,1.646l-.067.4a1.354,1.354,0,0,0,1.277,1.647h.034a1.892,1.892,0,0,0,1.747-1.647l.067-.4A1.372,1.372,0,0,0,849.88,177.574Z" transform="translate(-1.439 -13.904)" fill="#161615"/>
    <path id="Trazado_7" data-name="Trazado 7" d="M862.11,177.674a4.334,4.334,0,0,0-1.545-.2c-.573,0-1.478.471-1.748,2.05-.236,1.716-.4,2.556-.4,2.657a2.05,2.05,0,0,1-2.084,1.815h-1.075l.774-5.077c.067-.235.1-.571.167-.974s.134-.839.2-1.277a2.136,2.136,0,0,1,2.15-1.782h.977l-.1.5a2.868,2.868,0,0,1,1.814-.638,7.217,7.217,0,0,1,1.347.2l-.473,2.723" transform="translate(-2.707 -13.904)" fill="#161615"/>
    <path id="Trazado_8" data-name="Trazado 8" d="M872.978,183.816a4.7,4.7,0,0,1-3.9-1.579c-.808-.975-1.077-2.489-.808-4.471.708-4.033,2.958-6.049,6.724-6.049a5.322,5.322,0,0,1,3.461,1.075,3.654,3.654,0,0,1,1.009,3.4h-1.714a1.22,1.22,0,0,1-1.211-.841c-.135-.706-.773-1.075-1.916-1.075-1.815,0-2.958,1.177-3.4,3.5-.437,2.252.3,3.4,2.252,3.5a2.586,2.586,0,0,0,2.722-2.05h2.824l-.068.3c-.536,2.823-3.259,4.3-5.983,4.3" transform="translate(-4.317 -13.526)" fill="#161615"/>
    <path id="Trazado_9" data-name="Trazado 9" d="M889.762,178.568l-.168,1.009a5.147,5.147,0,0,1-4.974,4.168h-.1a3.527,3.527,0,0,1-3.664-4.168l.168-1.009A5.118,5.118,0,0,1,886,174.4h.1a3.527,3.527,0,0,1,3.665,4.167m-4.169-1.344h-.032a1.89,1.89,0,0,0-1.748,1.646l-.067.4a1.355,1.355,0,0,0,1.277,1.646h.033a1.891,1.891,0,0,0,1.748-1.646l.068-.4A1.374,1.374,0,0,0,885.593,177.224Zm1.883-3.6a1.2,1.2,0,0,1-.908.4h-1.143l.472-1.58a1.138,1.138,0,0,1,1.042-.5h2.149Z" transform="translate(-5.892 -13.555)" fill="#161615"/>
    <path id="Trazado_10" data-name="Trazado 10" d="M897.963,177.674a4.351,4.351,0,0,0-1.548-.2c-.571,0-1.477.471-1.747,2.05-.236,1.716-.4,2.556-.4,2.657a2.049,2.049,0,0,1-2.084,1.815H891.1l.774-5.077c.068-.235.1-.571.168-.974s.133-.839.2-1.277a2.138,2.138,0,0,1,2.152-1.782h.975l-.1.5a2.865,2.865,0,0,1,1.815-.638,7.191,7.191,0,0,1,1.344.2l-.47,2.723" transform="translate(-7.177 -13.904)" fill="#161615"/>
    <path id="Trazado_11" data-name="Trazado 11" d="M907.281,179.679a5.235,5.235,0,0,1-5.11,4.166h-.1a3.541,3.541,0,0,1-3.731-4.166l.136-1.008a5.238,5.238,0,0,1,5.107-4.134h.1a4.119,4.119,0,0,1,1.478.235l.27-1.546a1.544,1.544,0,0,1,1.512-1.277h1.612l-1.276,7.731m-2.824-.706a1.339,1.339,0,0,0-1.276-1.647h-.067a1.893,1.893,0,0,0-1.748,1.647l-.068.4a1.361,1.361,0,0,0,1.311,1.647h.034a1.927,1.927,0,0,0,1.782-1.647Z" transform="translate(-8.073 -13.555)" fill="#161615"/>
    <path id="Trazado_12" data-name="Trazado 12" d="M917.964,178.918l-.168,1.009a5.144,5.144,0,0,1-4.975,4.168h-.1a3.525,3.525,0,0,1-3.664-4.168l.168-1.009a5.117,5.117,0,0,1,4.975-4.166h.1a3.524,3.524,0,0,1,3.664,4.166m-4.167-1.344h-.034a1.891,1.891,0,0,0-1.748,1.646l-.067.4a1.355,1.355,0,0,0,1.277,1.647h.034a1.892,1.892,0,0,0,1.747-1.647l.067-.4A1.372,1.372,0,0,0,913.8,177.574Z" transform="translate(-9.409 -13.904)" fill="#161615"/>
    <path id="Trazado_13" data-name="Trazado 13" d="M938.643,177.482c-.2,1.479-.538,3.832-.773,5.345A1.381,1.381,0,0,1,936.492,184h-1.514a1.429,1.429,0,0,1-.066-.37,12.47,12.47,0,0,1-1.615.4,3.3,3.3,0,0,1-.806.067,2.446,2.446,0,0,1-2.453-1.276,3.261,3.261,0,0,1,.1-2.387c.6-1.782,2.791-2.252,4.47-2.252,1.075,0,1.378-.469,1.445-.839.034-.336-.134-.773-1.176-.773a1.328,1.328,0,0,0-1.311.839.545.545,0,0,1-.571.336h-2.32c.37-2.353,2.387-2.924,4.471-2.924,1.077,0,2.453.1,3.194,1.008a2.168,2.168,0,0,1,.3,1.647m-3.025,2.555a2.591,2.591,0,0,1-1.311.2,2.63,2.63,0,0,0-.941.135.758.758,0,0,0,.4,1.445l.269-.034A2,2,0,0,0,935.618,180.037Z" transform="translate(-12.008 -13.914)" fill="#161615"/>
    <path id="Trazado_14" data-name="Trazado 14" d="M923.882,171.946l-.537,3.127a4.729,4.729,0,0,1,1.512-.236h.1a3.473,3.473,0,0,1,3.632,4.034l-.168.975a5.057,5.057,0,0,1-4.941,4.033h-.068a3.426,3.426,0,0,1-3.629-4.033l1.008-6.32a1.855,1.855,0,0,1,1.882-1.58h1.21m.572,5.613h-.034a1.886,1.886,0,0,0-1.714,1.613l-.067.37a1.327,1.327,0,0,0,1.277,1.613h.033a1.858,1.858,0,0,0,1.716-1.613l.065-.37A1.358,1.358,0,0,0,924.455,177.559Z" transform="translate(-10.746 -13.555)" fill="#161615"/>
    <path id="Trazado_15" data-name="Trazado 15" d="M833.547,167.359l2.165-14.092a2.063,2.063,0,0,1,2.21-1.934h2.072l-.875,5.711h5.8l.553-3.547a2.465,2.465,0,0,1,2.531-2.165h1.8L847.684,165.2a2.466,2.466,0,0,1-2.533,2.164h-1.8l1.06-6.814h-5.85l-.69,4.651a2.466,2.466,0,0,1-2.533,2.164h-1.8" transform="translate(0 -10.984)" fill="#161615"/>
    <path id="Trazado_16" data-name="Trazado 16" d="M863.147,158.92c-.277,2.026-.736,5.249-1.061,7.321a1.888,1.888,0,0,1-1.887,1.612h-2.073a1.944,1.944,0,0,1-.091-.507,17.1,17.1,0,0,1-2.21.553,4.588,4.588,0,0,1-1.105.09,3.351,3.351,0,0,1-3.362-1.749,4.458,4.458,0,0,1,.139-3.268c.829-2.441,3.821-3.086,6.124-3.086,1.474,0,1.889-.644,1.979-1.151.047-.46-.183-1.059-1.611-1.059a1.818,1.818,0,0,0-1.8,1.151.751.751,0,0,1-.782.461h-3.177c.507-3.225,3.268-4.007,6.123-4.007,1.474,0,3.362.139,4.376,1.382a2.981,2.981,0,0,1,.415,2.257m-4.146,3.5a3.538,3.538,0,0,1-1.8.277,3.623,3.623,0,0,0-1.289.184,1.039,1.039,0,0,0,.552,1.98,1.138,1.138,0,0,0,.369-.046A2.734,2.734,0,0,0,859,162.419Z" transform="translate(-2.189 -11.477)" fill="#161615"/>
    <path id="Trazado_17" data-name="Trazado 17" d="M868.894,162.255a1.8,1.8,0,0,0,1.749,1.841h.046a2.453,2.453,0,0,0,2.164-1.474h4.006a7.184,7.184,0,0,1-6.768,5.388h-.138a4.864,4.864,0,0,1-5.02-5.755l.185-1.428a7.139,7.139,0,0,1,6.861-5.755h.138a4.869,4.869,0,0,1,5.065,5.387h-4.052a1.694,1.694,0,0,0-1.7-1.474h-.045a2.588,2.588,0,0,0-2.4,2.212l-.091.6a1.534,1.534,0,0,0,0,.461" transform="translate(-3.905 -11.45)" fill="#161615"/>
    <path id="Trazado_18" data-name="Trazado 18" d="M891.346,160.886a8.644,8.644,0,0,1-.325,1.842h-8.056a1.6,1.6,0,0,0,1.7,1.843h.045a2.417,2.417,0,0,0,1.8-.736h4.145a7.31,7.31,0,0,1-6.4,4.143h-.137a4.857,4.857,0,0,1-5.066-5.709l.185-1.382a7.11,7.11,0,0,1,6.907-5.71h.137a4.842,4.842,0,0,1,5.067,5.71m-5.665-2.257h-.045a2.494,2.494,0,0,0-2.3,1.934h4.005A1.739,1.739,0,0,0,885.681,158.629Z" transform="translate(-5.665 -11.464)" fill="#161615"/>
    <path id="Trazado_19" data-name="Trazado 19" d="M912.195,165.471a2.754,2.754,0,0,1-2.808,2.394h-1.614l1.289-7.367c.185-1.151-.321-2.025-1.52-2.025a2.074,2.074,0,0,0-2.072,1.979l-.783,5.02a2.753,2.753,0,0,1-2.808,2.394h-1.473l1.149-7.644v-.091a1.408,1.408,0,0,0-1.472-1.612,2.14,2.14,0,0,0-2.072,1.75l-.784,5.112a2.759,2.759,0,0,1-2.071,2.348,2.152,2.152,0,0,1-.784.137H892.9l1.059-6.953c.092-.691.276-1.843.507-3.086a2.9,2.9,0,0,1,2.948-2.439h1.334l-.046.229-.092.277a4.812,4.812,0,0,1,2.487-.506,4.717,4.717,0,0,1,3.086.783,6.876,6.876,0,0,1,3.821-.783,5.573,5.573,0,0,1,4.006,1.2c.876.968,1.151,2.44.876,4.329l-.691,4.559" transform="translate(-7.401 -11.49)" fill="#161615"/>
    <path id="Trazado_20" data-name="Trazado 20" d="M928.4,160.886l-.23,1.382a7.045,7.045,0,0,1-6.815,5.709h-.138a4.829,4.829,0,0,1-5.019-5.709l.23-1.382a7.011,7.011,0,0,1,6.815-5.71h.139a4.829,4.829,0,0,1,5.018,5.71m-5.71-1.842h-.046a2.594,2.594,0,0,0-2.394,2.257l-.092.553a1.856,1.856,0,0,0,1.75,2.257h.046a2.594,2.594,0,0,0,2.395-2.257l.09-.553A1.88,1.88,0,0,0,922.693,159.044Z" transform="translate(-10.297 -11.464)" fill="#161615"/>
    <path id="Trazado_21" data-name="Trazado 21" d="M933.995,163.649c-.093.966.551,1.428,1.979,1.428,1.153-.046,1.7-.277,1.7-.783q0-.553-1.243-.83c-.83-.183-1.658-.367-2.533-.6-2.073-.46-3.039-1.658-2.855-3.591.185-2.81,2.995-4.1,5.48-4.1a13.82,13.82,0,0,1,2.3.231c2.117.46,3.176,1.887,3.13,4.328h-2.347a1.585,1.585,0,0,1-1.383-.691,1.983,1.983,0,0,0-1.749-.966c-.876,0-1.336.23-1.428.644-.137.507.505.921,1.888,1.151,2.947.461,4.559,1.428,4.834,2.855a4.009,4.009,0,0,1-2.116,4.329,7.7,7.7,0,0,1-4.285,1.105,6.441,6.441,0,0,1-4.282-1.151,2.878,2.878,0,0,1-1.106-2.212,1.1,1.1,0,0,1,1.2-1.151h2.808" transform="translate(-12.025 -11.464)" fill="#161615"/>
  </g>
</svg>
