<svg xmlns="http://www.w3.org/2000/svg" width="238.25" height="71.762" viewBox="0 0 238.25 71.762">
  <g id="logo" transform="translate(-845.885 -63.24)">
    <path id="Trazado_1" data-name="Trazado 1" d="M907.748,94.024a19.254,19.254,0,0,0-3.207-5.248.477.477,0,0,1,.5-.762c7.754,2.18,14.9,6.237,18.69,10.256a38.216,38.216,0,0,1,.174,3.875l0,.194a36.192,36.192,0,0,1-10.009,24.643,35.305,35.305,0,0,1-11.239,7.961,39.767,39.767,0,0,1-14.914,3.146q-1.786-.011-3.507-.165a.146.146,0,0,1-.034-.284c15.1-5.124,29.658-27.558,23.552-43.615" transform="translate(-6.303 -3.087)" fill="#003f8f" fill-rule="evenodd"/>
    <path id="Trazado_2" data-name="Trazado 2" d="M883.473,122.238a20.3,20.3,0,0,0,6.841-1.089.476.476,0,0,1,.558.706c-4.007,6.3-9.178,12.447-13.516,14.8a34.4,34.4,0,0,1-8.508-2.433,35.677,35.677,0,0,1-11.279-7.635,33.9,33.9,0,0,1-7.358-11.245,35.97,35.97,0,0,1-2.567-13.825v-.2a35.366,35.366,0,0,1,2.781-13.794,36.253,36.253,0,0,1,3.943-7.019.17.17,0,0,1,.3.134c-3.9,18.625,10.746,41.488,28.8,41.595" transform="translate(-1.758 -2.145)" fill="#d9000d" fill-rule="evenodd"/>
    <path id="Trazado_3" data-name="Trazado 3" d="M865.368,90.036a33.717,33.717,0,0,0-1.691,6.835.477.477,0,0,1-.887.154c-4.043-7.255-5.865-15.27-5.739-21.073q.991-1.2,2.087-2.312a34.738,34.738,0,0,1,11.417-7.661,38.059,38.059,0,0,1,28.773.17,35.633,35.633,0,0,1,11.278,7.7,34.184,34.184,0,0,1,7.354,11.339,35.011,35.011,0,0,1,2.067,7.423.155.155,0,0,1-.287.1c-9.076-15.66-45.191-23.195-54.372-2.678" transform="translate(-2.93)" fill="#0090df" fill-rule="evenodd"/>
    <path id="Trazado_4" data-name="Trazado 4" d="M887.65,89.155l.79,4.536a.125.125,0,0,0,.238.031l1.9-4.194a.127.127,0,0,1,.242.061l-.319,4.594a.127.127,0,0,0,.226.087l2.85-3.616a.126.126,0,0,1,.22.116l-1.409,4.385.2.137,3.633-2.828.186.165-2.417,3.92.158.182,4.206-1.878a.127.127,0,0,1,.139.207l-3.285,3.226a.126.126,0,0,0,.111.214l4.531-.816a.124.124,0,0,1,.086.23l-3.961,2.348a.127.127,0,0,0,.057.235l4.594.293a.125.125,0,0,1,.029.245l-4.408,1.331v.24l4.391,1.385a.127.127,0,0,1-.031.247l-4.6.237a.126.126,0,0,0-.059.233l3.933,2.395a.125.125,0,0,1-.088.23l-4.522-.869-.114.214,3.247,3.266a.126.126,0,0,1-.143.2l-4.183-1.927-.161.18,2.371,3.948-.187.163-3.6-2.871-.2.137,1.356,4.4a.126.126,0,0,1-.22.114l-2.81-3.65a.126.126,0,0,0-.225.084l.264,4.6a.126.126,0,0,1-.242.057l-1.852-4.215-.24.028-.845,4.526a.126.126,0,0,1-.248,0l-.79-4.535-.239-.032-1.9,4.194a.127.127,0,0,1-.242-.06l.319-4.594a.127.127,0,0,0-.225-.088l-2.851,3.617a.126.126,0,0,1-.219-.117l1.407-4.384-.2-.138-3.634,2.829-.184-.165,2.416-3.921-.158-.181-4.2,1.878a.126.126,0,0,1-.139-.2l3.283-3.226-.109-.214-4.533.816a.126.126,0,0,1-.085-.233l3.962-2.347a.126.126,0,0,0-.057-.235l-4.6-.291a.126.126,0,0,1-.029-.247l4.408-1.331,0-.241-4.392-1.384a.126.126,0,0,1,.033-.246l4.6-.237a.127.127,0,0,0,.059-.235l-3.932-2.394a.126.126,0,0,1,.088-.231l4.523.869.114-.213-3.247-3.266a.126.126,0,0,1,.143-.2l4.181,1.928.161-.18-2.369-3.949.186-.163,3.6,2.872.2-.136-1.356-4.4a.126.126,0,0,1,.22-.114l2.808,3.65a.127.127,0,0,0,.227-.084l-.264-4.6a.125.125,0,0,1,.24-.059l1.854,4.214a.126.126,0,0,0,.24-.026l.843-4.526a.126.126,0,0,1,.249,0" transform="translate(-5.063 -3.218)" fill="#ffa900"/>
    <path id="Trazado_5" data-name="Trazado 5" d="M849.676,181.231l-.268,1.554a8.113,8.113,0,0,1-7.872,6.427h-.162a6.2,6.2,0,0,1-2.25-.377l-.536,3.215a2.82,2.82,0,0,1-2.785,2.409H833.66l2.2-13.228a8.147,8.147,0,0,1,7.872-6.481h.16a5.55,5.55,0,0,1,5.785,6.481m-6.64-2.089h-.054a2.953,2.953,0,0,0-2.731,2.516l-.054.644a2.1,2.1,0,0,0,1.983,2.57h.053a2.918,2.918,0,0,0,2.732-2.57l.1-.644A2.064,2.064,0,0,0,843.036,179.142Z" transform="translate(97.045 -69.493)"/>
    <path id="Trazado_6" data-name="Trazado 6" d="M859.364,181.39,859.1,183a8.2,8.2,0,0,1-7.928,6.642h-.159A5.616,5.616,0,0,1,845.172,183l.268-1.608a8.152,8.152,0,0,1,7.926-6.639h.16a5.617,5.617,0,0,1,5.838,6.639m-6.642-2.141h-.052a3.011,3.011,0,0,0-2.785,2.623l-.107.643a2.158,2.158,0,0,0,2.035,2.625h.054a3.014,3.014,0,0,0,2.784-2.625l.106-.643A2.187,2.187,0,0,0,852.723,179.249Z" transform="translate(101.556 -69.492)"/>
    <path id="Trazado_7" data-name="Trazado 7" d="M866.179,179.41a6.906,6.906,0,0,0-2.462-.322c-.912,0-2.356.75-2.785,3.266-.376,2.734-.644,4.073-.644,4.233a3.266,3.266,0,0,1-3.321,2.893h-1.713l1.233-8.089c.106-.374.161-.909.266-1.552s.214-1.338.322-2.035a3.4,3.4,0,0,1,3.425-2.84h1.556l-.162.8a4.57,4.57,0,0,1,2.89-1.017,11.5,11.5,0,0,1,2.147.321l-.753,4.339" transform="translate(105.568 -69.493)"/>
    <path id="Trazado_8" data-name="Trazado 8" d="M875.831,191c-2.41,0-4.659-.587-6.212-2.516-1.287-1.554-1.716-3.965-1.287-7.124,1.128-6.427,4.714-9.639,10.714-9.639a8.48,8.48,0,0,1,5.515,1.713c1.34,1.126,1.876,2.944,1.608,5.41h-2.731a1.944,1.944,0,0,1-1.929-1.34c-.215-1.126-1.232-1.713-3.053-1.713-2.893,0-4.714,1.876-5.41,5.569-.7,3.589.484,5.41,3.589,5.571a4.121,4.121,0,0,0,4.338-3.266h4.5l-.109.481c-.855,4.5-5.192,6.855-9.533,6.855" transform="translate(110.667 -70.69)"/>
    <path id="Trazado_9" data-name="Trazado 9" d="M895.079,182.5l-.268,1.608a8.2,8.2,0,0,1-7.926,6.642h-.162a5.62,5.62,0,0,1-5.838-6.642l.268-1.608a8.155,8.155,0,0,1,7.926-6.64h.16a5.62,5.62,0,0,1,5.84,6.64m-6.643-2.141h-.052a3.012,3.012,0,0,0-2.785,2.623l-.107.643a2.16,2.16,0,0,0,2.035,2.623h.053a3.013,3.013,0,0,0,2.785-2.623l.109-.643A2.189,2.189,0,0,0,888.435,180.355Zm3-5.731a1.919,1.919,0,0,1-1.446.642h-1.822l.752-2.517a1.814,1.814,0,0,1,1.661-.8H894Z" transform="translate(115.653 -70.599)"/>
    <path id="Trazado_10" data-name="Trazado 10" d="M902.033,179.41a6.932,6.932,0,0,0-2.466-.322c-.909,0-2.354.75-2.784,3.266-.377,2.734-.644,4.073-.644,4.233a3.264,3.264,0,0,1-3.321,2.893H891.1l1.233-8.089c.109-.374.16-.909.268-1.552s.212-1.338.321-2.035a3.407,3.407,0,0,1,3.428-2.84h1.554l-.161.8a4.565,4.565,0,0,1,2.891-1.017,11.457,11.457,0,0,1,2.142.321l-.749,4.339" transform="translate(119.72 -69.493)"/>
    <path id="Trazado_11" data-name="Trazado 11" d="M912.618,184.266a8.341,8.341,0,0,1-8.142,6.639h-.16c-3.908,0-6.533-2.944-5.946-6.639l.216-1.607a8.347,8.347,0,0,1,8.138-6.587h.165a6.563,6.563,0,0,1,2.356.374l.43-2.463a2.46,2.46,0,0,1,2.409-2.035h2.569l-2.034,12.318m-4.5-1.126a2.133,2.133,0,0,0-2.034-2.625h-.107a3.016,3.016,0,0,0-2.785,2.625l-.109.642a2.169,2.169,0,0,0,2.089,2.625h.054a3.071,3.071,0,0,0,2.84-2.625Z" transform="translate(122.555 -70.599)"/>
    <path id="Trazado_12" data-name="Trazado 12" d="M923.28,181.39,923.012,183a8.2,8.2,0,0,1-7.928,6.642h-.159A5.617,5.617,0,0,1,909.087,183l.268-1.608a8.154,8.154,0,0,1,7.928-6.639h.159a5.615,5.615,0,0,1,5.838,6.639m-6.639-2.141h-.054a3.013,3.013,0,0,0-2.785,2.623l-.107.643a2.16,2.16,0,0,0,2.035,2.625h.054a3.014,3.014,0,0,0,2.784-2.625l.106-.643A2.186,2.186,0,0,0,916.641,179.249Z" transform="translate(126.786 -69.492)"/>
    <path id="Trazado_13" data-name="Trazado 13" d="M943.86,179.058c-.322,2.357-.858,6.106-1.231,8.516a2.2,2.2,0,0,1-2.2,1.873H938.02a2.277,2.277,0,0,1-.1-.59,19.871,19.871,0,0,1-2.573.644,5.251,5.251,0,0,1-1.285.106c-1.608,0-3.159-.428-3.909-2.034a5.2,5.2,0,0,1,.16-3.8c.964-2.84,4.446-3.589,7.123-3.589,1.713,0,2.2-.748,2.3-1.338.054-.536-.213-1.232-1.875-1.232a2.116,2.116,0,0,0-2.089,1.338.868.868,0,0,1-.909.536h-3.7c.59-3.749,3.8-4.66,7.124-4.66,1.715,0,3.909.162,5.089,1.607a3.454,3.454,0,0,1,.483,2.625m-4.82,4.071a4.128,4.128,0,0,1-2.09.321,4.191,4.191,0,0,0-1.5.215,1.208,1.208,0,0,0,.643,2.3l.428-.054A3.187,3.187,0,0,0,939.04,183.129Z" transform="translate(135.014 -69.463)"/>
    <path id="Trazado_14" data-name="Trazado 14" d="M926.347,171.946l-.855,4.982a7.535,7.535,0,0,1,2.409-.377h.159a5.533,5.533,0,0,1,5.787,6.428l-.268,1.554a8.059,8.059,0,0,1-7.873,6.427H925.6c-3.8,0-6.373-2.84-5.783-6.427l1.607-10.07a2.956,2.956,0,0,1,3-2.517h1.927m.912,8.944H927.2a3.005,3.005,0,0,0-2.731,2.57l-.107.59a2.114,2.114,0,0,0,2.035,2.57h.053a2.96,2.96,0,0,0,2.734-2.57l.1-.59A2.163,2.163,0,0,0,927.259,180.89Z" transform="translate(131.019 -70.6)"/>
    <path id="Trazado_15" data-name="Trazado 15" d="M833.547,176.869,837,154.415a3.287,3.287,0,0,1,3.521-3.081h3.3l-1.395,9.1h9.246l.881-5.651a3.927,3.927,0,0,1,4.034-3.449h2.862l-3.374,22.087a3.929,3.929,0,0,1-4.036,3.448h-2.862l1.689-10.858h-9.321l-1.1,7.41a3.929,3.929,0,0,1-4.036,3.448h-2.861" transform="translate(97 -78.736)"/>
    <path id="Trazado_16" data-name="Trazado 16" d="M870.3,161.079c-.441,3.229-1.173,8.364-1.691,11.666a3.009,3.009,0,0,1-3.007,2.569h-3.3a3.1,3.1,0,0,1-.145-.808,27.255,27.255,0,0,1-3.522.881,7.311,7.311,0,0,1-1.761.144c-2.2,0-4.329-.584-5.357-2.787a7.1,7.1,0,0,1,.222-5.208c1.321-3.89,6.088-4.918,9.758-4.918,2.349,0,3.01-1.027,3.154-1.834.075-.732-.292-1.688-2.566-1.688a2.9,2.9,0,0,0-2.861,1.834,1.2,1.2,0,0,1-1.247.735h-5.063c.808-5.138,5.208-6.385,9.756-6.385,2.349,0,5.357.222,6.972,2.2a4.75,4.75,0,0,1,.661,3.6m-6.606,5.576a5.637,5.637,0,0,1-2.861.441,5.774,5.774,0,0,0-2.054.293,1.655,1.655,0,0,0,.88,3.155,1.814,1.814,0,0,0,.587-.074A4.356,4.356,0,0,0,863.69,166.655Z" transform="translate(103.929 -77.178)"/>
    <path id="Trazado_17" data-name="Trazado 17" d="M871.286,166.518a2.865,2.865,0,0,0,2.786,2.933h.074a3.909,3.909,0,0,0,3.448-2.349h6.384a11.447,11.447,0,0,1-10.784,8.586h-.22a7.751,7.751,0,0,1-8-9.17l.294-2.276a11.375,11.375,0,0,1,10.932-9.17h.22a7.758,7.758,0,0,1,8.07,8.583h-6.456a2.7,2.7,0,0,0-2.716-2.349h-.071a4.124,4.124,0,0,0-3.818,3.525l-.145.953a2.444,2.444,0,0,0,0,.735" transform="translate(109.361 -77.261)"/>
    <path id="Trazado_18" data-name="Trazado 18" d="M898.685,164.274a13.778,13.778,0,0,1-.518,2.935H885.331a2.549,2.549,0,0,0,2.714,2.936h.073a3.85,3.85,0,0,0,2.86-1.173h6.605a11.647,11.647,0,0,1-10.2,6.6h-.219c-5.285,0-8.879-4.106-8.072-9.1l.294-2.2a11.329,11.329,0,0,1,11.006-9.1h.218c5.285,0,8.879,4.036,8.074,9.1m-9.027-3.6h-.071c-1.911,0-3.084,1.4-3.67,3.081H892.3A2.771,2.771,0,0,0,889.658,160.678Z" transform="translate(114.934 -77.219)"/>
    <path id="Trazado_19" data-name="Trazado 19" d="M923.644,171.454a4.388,4.388,0,0,1-4.474,3.815H916.6l2.054-11.739c.294-1.834-.512-3.227-2.421-3.227s-3.005,1.319-3.3,3.154l-1.247,8a4.386,4.386,0,0,1-4.474,3.815h-2.347l1.831-12.18v-.145a2.243,2.243,0,0,0-2.346-2.569,3.41,3.41,0,0,0-3.3,2.788l-1.25,8.145a4.4,4.4,0,0,1-3.3,3.742,3.429,3.429,0,0,1-1.25.219H892.9l1.688-11.078c.146-1.1.441-2.936.808-4.918a4.62,4.62,0,0,1,4.7-3.886h2.125l-.074.365-.147.441a7.667,7.667,0,0,1,3.962-.806c1.467,0,3.6.071,4.918,1.247,1.466-1.1,4.034-1.247,6.088-1.247,2.568,0,4.916.438,6.384,1.905,1.4,1.543,1.834,3.889,1.4,6.9l-1.1,7.264" transform="translate(120.428 -77.136)"/>
    <path id="Trazado_20" data-name="Trazado 20" d="M935.686,164.274l-.367,2.2a11.226,11.226,0,0,1-10.859,9.1h-.22c-5.208,0-8.8-4.034-8-9.1l.367-2.2c.735-5.061,5.65-9.1,10.859-9.1h.222c5.209,0,8.8,4.036,8,9.1m-9.1-2.935h-.074a4.133,4.133,0,0,0-3.815,3.6l-.146.881a2.958,2.958,0,0,0,2.788,3.6h.074a4.133,4.133,0,0,0,3.816-3.6l.144-.881A3,3,0,0,0,926.588,161.339Z" transform="translate(129.598 -77.219)"/>
    <path id="Trazado_21" data-name="Trazado 21" d="M936.374,168.677c-.148,1.54.879,2.275,3.154,2.275,1.837-.074,2.715-.441,2.715-1.247q0-.881-1.981-1.322c-1.322-.292-2.642-.584-4.036-.953-3.3-.734-4.843-2.642-4.55-5.723.294-4.477,4.771-6.532,8.732-6.532a22.022,22.022,0,0,1,3.67.368c3.374.734,5.061,3.007,4.988,6.9h-3.739a2.526,2.526,0,0,1-2.2-1.1,3.16,3.16,0,0,0-2.787-1.54c-1.4,0-2.128.367-2.275,1.027-.219.808.8,1.467,3.008,1.834,4.7.735,7.264,2.275,7.7,4.55.516,2.863-.66,5.209-3.372,6.9a12.266,12.266,0,0,1-6.827,1.762c-2.347,0-4.915-.22-6.823-1.834a4.585,4.585,0,0,1-1.762-3.524,1.756,1.756,0,0,1,1.911-1.834h4.474" transform="translate(135.067 -77.219)"/>
  </g>
</svg>
